PathFileType	4	(X/Y/Z)	E:\Qualisys_Data\Carbon_Farble_Plate\Data\Amateur_Runner\S14\T2\S14T2V26_c3d.trc
DataRate	CameraRate	NumFrames	NumMarkers	Units	OrigDataRate	OrigDataStartFrame	OrigNumFrames
200.000000	200.000000	4	39	mm	200.000000	222	296
Frame#	Time	LSHO			RSHO			LICST			RICST			LASIS			LHEEL			RASIS			LTROC			RTROC			SACR			LTH1			LSK4			LTH2			LTH3			RHM5			LSK2			LTH4			RTH1			LTOE			RTH2			RTH3			RTH4			LLEP			RLEP			LSK1			LSK3			RSK1			LHM5			RSK2			LFT1			RSK3			RSK4			LLME			RLME			RTOE			RHEEL			RFT1			RFT2			LFT2			
		X1	Y1	Z1	X2	Y2	Z2	X3	Y3	Z3	X4	Y4	Z4	X5	Y5	Z5	X6	Y6	Z6	X7	Y7	Z7	X8	Y8	Z8	X9	Y9	Z9	X10	Y10	Z10	X11	Y11	Z11	X12	Y12	Z12	X13	Y13	Z13	X14	Y14	Z14	X15	Y15	Z15	X16	Y16	Z16	X17	Y17	Z17	X18	Y18	Z18	X19	Y19	Z19	X20	Y20	Z20	X21	Y21	Z21	X22	Y22	Z22	X23	Y23	Z23	X24	Y24	Z24	X25	Y25	Z25	X26	Y26	Z26	X27	Y27	Z27	X28	Y28	Z28	X29	Y29	Z29	X30	Y30	Z30	X31	Y31	Z31	X32	Y32	Z32	X33	Y33	Z33	X34	Y34	Z34	X35	Y35	Z35	X36	Y36	Z36	X37	Y37	Z37	X38	Y38	Z38	X39	Y39	Z39	

223	1.11	1717.759155273438	1426.506591796875	-564.1694946289062	1833.445678710938	1423.279663085938	-305.0264587402344	1768.268676757812	969.9430541992188	-550.1817626953125	1811.025268554688	976.6907348632812	-279.2313232421875	1816.263671875	923.3126831054688	-527.8106079101562	1959.43505859375	62.23876571655273	-434.9140014648438	1833.611694335938	931.7731323242188	-297.4177856445312	1699.717895507812	845.09423828125	-570.2266845703125	1680.595947265625	864.3837890625	-230.8441314697266	1650.905639648438	965.1998901367188	-411.7192687988281	1846.494995117188	638.660888671875	-576.720703125	1899.262084960938	268.3885498046875	-516.6436157226562	1784.139892578125	611.8743286132812	-539.2560424804688	1900.133544921875	558.232421875	-549.9463500976562	1168.797241210938	311.3911743164062	-262.3085327148438	1874.4697265625	363.4989318847656	-532.9782104492188	1830.885986328125	528.1069946289062	-522.5556640625	1739.949340820312	623.8867797851562	-242.7124938964844	2198.02001953125	143.0674285888672	-500.2195434570312	1666.535278320312	648.4795532226562	-230.6592254638672	1711.001586914062	528.279052734375	-261.1936645507812	1631.37890625	555.2042846679688	-248.1154022216797	1893.524536132812	470.9902648925781	-540.589599609375	1626.480224609375	482.7047424316406	-247.4264984130859	1953.850341796875	383.8116149902344	-542.1658325195312	1977.446411132812	284.7510070800781	-530.0422973632812	1517.552490234375	428.438720703125	-252.6159362792969	2138.988525390625	85.39485168457031	-546.3980102539062	1495.63427734375	511.6075134277344	-258.6203308105469	1982.144409179688	44.27023315429688	-413.1734924316406	1417.597534179688	407.8125	-272.9000244140625	1404.492553710938	486.21337890625	-278.2346496582031	1994.737670898438	101.3714218139648	-504.5165100097656	1246.93408203125	423.5444030761719	-305.8970642089844	1179.040649414062	220.3146057128906	-302.6830139160156	1234.576904296875	465.8041381835938	-375.322509765625	1205.486938476562	448.0046691894531	-401.8439331054688	1207.52685546875	475.2586059570312	-351.6096496582031	1971.577392578125	31.01921463012695	-464.7347412109375
224	1.115	1738.234375	1420.818359375	-566.0355224609375	1852.377075195312	1418.699340820312	-305.4877319335938	1786.94091796875	965.7393798828124	-550.5059814453125	1830.818115234375	972.0611572265624	-279.5949096679688	1835.807983398438	919.2963256835938	-528.9189453125	1966.751098632812	63.75485992431641	-433.747314453125	1853.796997070312	927.6611938476562	-297.8777465820312	1718.2841796875	840.0230712890625	-569.279296875	1701.835693359375	858.3958740234375	-230.3647918701172	1670.691650390625	960.6511840820312	-411.0798950195312	1867.188110351562	634.9508056640625	-575.3716430664062	1914.273803710938	263.9998474121094	-515.5427856445312	1804.072387695312	607.7694091796875	-539.6294555664062	1919.943481445312	554.4080200195312	-548.4744262695312	1193.425903320312	315.074462890625	-263.9978942871094	1891.917236328125	359.7846984863281	-533.266357421875	1850.7275390625	523.9486694335938	-522.8540649414062	1764.41748046875	619.3195190429688	-242.2119140625	2210.82470703125	127.6503448486328	-497.4092407226562	1690.510498046875	642.6964721679688	-230.0474548339844	1737.1142578125	522.72998046875	-260.3756103515625	1657.010986328125	548.3241577148438	-247.3213043212891	1912.367553710938	466.5127868652344	-539.92431640625	1653.353637695312	476.3574829101562	-246.0277862548828	1970.882690429688	378.38134765625	-541.772705078125	1992.9404296875	278.67529296875	-528.3392944335938	1543.8671875	423.9664306640625	-251.6500244140625	2146.6708984375	73.51032257080078	-542.9402465820312	1523.798095703125	507.2575988769531	-257.7954711914062	1987.268798828125	42.44790649414062	-410.4391174316406	1443.361694335938	405.8658752441406	-272.9909057617188	1432.344360351562	484.4273986816406	-278.3541259765625	2005.601806640625	96.07295989990234	-502.6989440917969	1273.720703125	426.0965881347656	-307.1783142089844	1202.517456054688	223.9774169921875	-304.4504699707031	1262.876098632812	468.4303283691406	-377.3740539550781	1233.439819335938	450.8546752929688	-403.5962829589844	1235.283569335938	478.2999267578125	-353.3592224121094	1974.227416992188	30.0179328918457	-463.4994201660156
225	1.12	1758.748779296875	1414.802001953125	-567.681884765625	1871.32373046875	1413.975952148438	-305.9094543457031	1805.718383789062	961.2723999023438	-550.99267578125	1850.683715820312	967.5671997070312	-279.8532104492188	1855.413696289062	915.0281372070312	-529.7622680664062	1974.711791992188	64.55609130859375	-432.7213745117188	1873.934448242188	923.3750610351562	-298.3577270507812	1737.157104492188	835.75439453125	-568.7313232421875	1723.022338867188	852.5582885742188	-230.1865539550781	1689.936401367188	955.7521362304688	-410.4719848632812	1887.602416992188	631.2379150390625	-574.0885620117188	1929.220703125	259.65185546875	-515.1119995117188	1823.428100585938	603.8673706054688	-540.6288452148438	1940.238159179688	550.8463745117188	-547.1035766601562	1218.638061523438	317.7124938964844	-266.4401550292969	1908.84912109375	355.6197814941406	-532.9334716796875	1870.590087890625	519.3694458007812	-523.1005859375	1788.647705078125	613.6834716796875	-242.0420684814453	2221.517578125	109.5313186645508	-494.7431030273438	1714.524291992188	635.954833984375	-229.7777099609375	1763.33203125	516.8153686523438	-259.4006958007812	1682.754272460938	540.9805297851562	-245.9874877929688	1931.121459960938	461.8779907226562	-540.1637573242188	1680.768798828125	469.0081176757812	-245.0236206054688	1987.997680664062	373.0945434570312	-541.0176391601562	2008.30712890625	272.4623718261719	-527.4099731445312	1570.745849609375	419.3512573242188	-251.4233551025391	2153.52880859375	60.32843017578125	-540.2592163085938	1552.223510742188	503.30859375	-257.1054077148438	1993.078979492188	39.79313659667969	-409.1820373535156	1470.14794921875	403.5592346191406	-273.454833984375	1460.783081054688	482.2601013183594	-278.3782653808594	2015.869262695312	90.94235229492188	-500.9111938476562	1301.25146484375	427.6781005859375	-308.5865173339844	1226.619018554688	227.0718841552734	-306.1281127929688	1291.098510742188	470.2747497558594	-378.7711181640625	1260.531127929688	454.0789489746094	-406.1072082519531	1263.914672851562	480.4918212890625	-354.9661560058594	1978.969116210938	29.95388793945312	-462.5011901855469
226	1.125	1779.160888671875	1408.84716796875	-569.8677368164062	1889.480834960938	1409.083129882812	-306.4105224609375	1824.146728515625	956.6526489257812	-551.9530029296875	1870.541381835938	962.5455322265624	-280.1942138671875	1874.379272460938	910.50390625	-531.0711059570312	1981.418579101562	63.27871704101562	-431.342041015625	1894.227661132812	918.6181640625	-299.2034301757812	1755.787353515625	830.868408203125	-567.6448974609375	1743.90234375	846.4646606445312	-230.4253387451172	1709.399536132812	950.7268676757812	-410.2384338378906	1908.200805664062	627.9590454101562	-572.2584228515625	1943.71630859375	255.4644927978516	-514.287109375	1843.310668945312	599.05419921875	-540.9678955078125	1960.372314453125	546.9351196289062	-546.35498046875	1245.04443359375	320.2597961425781	-268.2125244140625	1925.911254882812	351.7905578613281	-532.2865600585938	1890.659423828125	515.1845703125	-524.1903686523438	1813.126831054688	608.49609375	-241.5135650634766	2232.12548828125	90.17023468017578	-491.9371032714844	1738.720458984375	629.1345825195312	-229.0193176269531	1789.778076171875	510.8707885742188	-258.7834167480469	1708.7939453125	533.6139526367188	-245.4904632568359	1949.937622070312	457.1742858886719	-539.9349975585938	1708.500610351562	462.4122314453125	-243.6968688964844	2005.520141601562	367.69775390625	-540.2523193359375	2023.456420898438	266.745361328125	-524.7577514648438	1598.021484375	415.1493225097656	-250.9466857910156	2161.01611328125	46.99526596069336	-538.3253173828125	1581.288208007812	498.9961242675781	-256.2948913574219	1997.220336914062	38.29766464233398	-408.9546203613281	1497.293090820312	400.9791259765625	-273.6649169921875	1489.502685546875	479.8713989257812	-278.3975524902344	2024.554565429688	85.44232177734375	-498.9762573242188	1328.709228515625	428.5699462890625	-309.9234313964844	1251.87744140625	229.1228485107422	-307.890625	1320.075073242188	471.885986328125	-380.2694702148438	1290.868041992188	455.6729431152344	-406.0985717773438	1292.904541015625	482.5520629882812	-356.1604919433594	1983.058837890625	30.15407752990723	-462.5789489746094
